<?xml version="1.0" encoding="UTF-8" standalone="no"?>

<svg
   width="141.597mm"
   height="112.082mm"
   viewBox="0 0 141.597 112.082"
   version="1.1"
   xmlns:xlink="http://www.w3.org/1999/xlink"
   xmlns="http://www.w3.org/2000/svg"
   xmlns:svg="http://www.w3.org/2000/svg">
  <defs
     id="defs2">
    <linearGradient
       id="linearGradient11564">
      <stop
         style="stop-color:#00ff00;stop-opacity:1;"
         offset="0"
         id="stop11560" />
      <stop
         style="stop-color:#000000;stop-opacity:1;"
         offset="1"
         id="stop11562" />
    </linearGradient>
    <linearGradient
       xlink:href="#linearGradient11564"
       id="linearGradient11566"
       x1="89.436"
       y1="66.979"
       x2="120.216"
       y2="66.979"
       gradientUnits="userSpaceOnUse" />
  </defs>
  <g
     id="layer1"
     transform="translate(-23.332,-7.148)">
    <g
       aria-label="R"
       id="text1153"
       style="font-weight:bold;font-size:141.111px;font-family:'Liberation Sans';fill:#00ff0f;stroke-width:15;stroke-linejoin:round;paint-order:markers stroke fill;stop-color:#000000">
      <g
         id="path1612">
        <path
           id="path2509"
           style="color:#000000;fill:#00ff00;stroke-linecap:square;stroke-linejoin:miter;"
           d="M 54.111,7.1484009 54.111,51.59 H 23.332 v 30.779 h 30.779 v 36.861 H 89.437 L 89.437,82.369 l 12.135,1.32e-4 22.531,36.861 h 4.20491 36.621 L 136.134,74.488 c 3.97442,-2.202032 7.52186,-5.043933 10.337,-8.630998 l 0.0119,-0.01395 0.01,-0.01344 c 4.87779,-6.271447 7.36699,-14.024 7.36699,-22.242 0,-11.008 -4.20787,-20.937 -12.290,-27.312 -8.04431,-6.3904659 -18.805,-9.1270901 -31.451,-9.1270901 z M 89.437,37.927 h 18.545 c 4.99552,0 7.74607,1.069299 8.82013,1.907894 1.07407,0.838597 1.59577,1.516649 1.59577,4.578015 0,3.055227 -0.59133,4.072948 -1.8495,5.173845 -1.1333,0.991632 -3.44714,2.001945 -8.01398,2.001945 L 89.437,51.59 Z"/>
      </g>
    </g>
    <path
       id="rect10644"
       style="fill:url(#linearGradient11566);fill-opacity:1;stroke-width:15;stroke-linecap:square;paint-order:markers stroke fill;stop-color:#000000"
       d="m 89.437,51.59 h 30.779 V 82.369 H 89.437 Z" />
  </g>
</svg>
